<svg id="Capa_1" enable-background="new 0 0 512 512" height="512" viewBox="0 0 512 512" width="512" xmlns="http://www.w3.org/2000/svg"><g><path d="m64.426 62.96h383.147v386.079h-383.147z" fill="#617881" transform="matrix(-1 0 0 -1 512 512)"/><path d="m407.574 62.96v262.643c0 57.126-46.31 103.436-103.436 103.436h-239.712v20h383.147v-386.079z" fill="#475959"/><path d="m135.334 62.96h33.172v146.756h-33.172z" fill="#d0e2e7" transform="matrix(-1 0 0 -1 303.84 272.676)"/><path d="m135.334 333.173h33.172v115.866h-33.172z" fill="#d0e2e7" transform="matrix(-1 0 0 -1 303.84 782.213)"/><path d="m169.882 302.309c8.77 0 15.832 7.316 15.415 16.178-.391 8.3-7.541 14.686-15.85 14.686h-39.257c-20.857 0-37.769-16.906-37.769-37.763 0-13.611 0-30.063 0-47.925 0-20.859 16.91-37.769 37.769-37.769h43.707c8.523 0 15.432 6.909 15.432 15.432 0 8.523-6.909 15.432-15.432 15.432 8.523 0 15.432 6.909 15.432 15.432 0 8.523-6.909 15.432-15.432 15.432 8.77 0 15.832 7.316 15.415 16.178-.391 8.3-7.541 14.686-15.85 14.686h-3.58z" fill="#f1d0a5"/><path d="m197.916 209.716h-24.01c8.519.005 15.423 6.912 15.423 15.432 0 8.523-6.909 15.432-15.432 15.432 8.523 0 15.432 6.909 15.432 15.432 0 8.523-6.909 15.432-15.431 15.432h.008 24.011c9.112 0 16.498-7.387 16.498-16.498v-28.732c-.001-9.112-7.388-16.498-16.499-16.498z" fill="#f1b986"/><path d="m197.916 271.445h-24.011c-.003 0-.005 0-.008 0 .172 0 .343-.003.513-.009-.171.006-.342.009-.514.009 8.77 0 15.832 7.316 15.415 16.178-.391 8.3-7.541 14.686-15.85 14.686h-3.578c8.77 0 15.832 7.316 15.415 16.178-.391 8.3-7.541 14.686-15.85 14.686h7.208c20.854 0 37.76-16.906 37.76-37.76v-40.467c-.002 9.112-7.389 16.499-16.5 16.499z" fill="#e2a770"/><path d="m343.494 62.96h33.172v146.756h-33.172z" fill="#d0e2e7"/><path d="m343.494 333.173h33.172v115.866h-33.172z" fill="#d0e2e7"/><path d="m342.118 302.309c-8.77 0-15.832 7.316-15.415 16.178.391 8.3 7.541 14.686 15.85 14.686h39.257c20.857 0 37.769-16.906 37.769-37.763 0-13.611 0-30.063 0-47.925 0-20.859-16.91-37.769-37.769-37.769h-43.707c-8.523 0-15.432 6.909-15.432 15.432 0 8.523 6.909 15.432 15.432 15.432-8.523 0-15.432 6.909-15.432 15.432 0 8.523 6.909 15.432 15.432 15.432-8.77 0-15.832 7.316-15.415 16.178.391 8.3 7.541 14.686 15.85 14.686h3.58z" fill="#f1d0a5"/><path d="m314.084 209.716h24.01c-8.519.005-15.423 6.912-15.423 15.432 0 8.523 6.909 15.432 15.432 15.432-8.523 0-15.432 6.909-15.432 15.432 0 8.523 6.909 15.432 15.431 15.432-.003 0-.005 0-.008 0h-24.011c-9.112 0-16.498-7.387-16.498-16.498v-28.732c.001-9.112 7.388-16.498 16.499-16.498z" fill="#f1b986"/><path d="m314.084 271.445h24.011.008c-.172 0-.343-.003-.513-.009.171.006.342.009.514.009-8.77 0-15.832 7.316-15.415 16.178.391 8.3 7.541 14.686 15.85 14.686h3.578c-8.77 0-15.832 7.316-15.415 16.178.391 8.3 7.541 14.686 15.85 14.686h-7.208c-20.854 0-37.76-16.906-37.76-37.76v-40.467c.002 9.112 7.389 16.499 16.5 16.499z" fill="#e2a770"/><g fill="#d0e2e7"><path d="m239.414 62.96h33.172v386.079h-33.172z"/><path d="m31.254 62.96h33.172v386.079h-33.172z"/><path d="m447.574 62.96h33.172v386.079h-33.172z" transform="matrix(-1 0 0 -1 928.319 512)"/></g><path d="m500.538 18.812h-489.076c-2.188 0-3.962 1.774-3.962 3.962v36.225c0 2.188 1.774 3.962 3.962 3.962h489.076c2.188 0 3.962-1.774 3.962-3.962v-36.225c0-2.188-1.774-3.962-3.962-3.962z" fill="#f1f4f6"/><path d="m500.538 449.04h-489.076c-2.188 0-3.962 1.774-3.962 3.962v36.225c0 2.188 1.774 3.962 3.962 3.962h489.076c2.188 0 3.962-1.774 3.962-3.962v-36.225c0-2.189-1.774-3.962-3.962-3.962z" fill="#f1f4f6"/><path d="m500.538 11.312h-489.076c-6.32 0-11.462 5.141-11.462 11.461v36.225c0 6.32 5.142 11.462 11.462 11.462h12.293v371.08h-12.293c-6.32 0-11.462 5.142-11.462 11.462v36.225c0 6.32 5.142 11.462 11.462 11.462h489.076c6.32 0 11.462-5.142 11.462-11.462v-36.225c0-6.32-5.142-11.462-11.462-11.462h-12.293v-371.08h12.293c6.32 0 11.462-5.142 11.462-11.462v-36.225c0-6.32-5.142-11.461-11.462-11.461zm-461.783 59.148h18.172v371.08h-18.172zm434.49 371.08h-18.172v-371.08h18.172zm-89.079 0v-100.928c23.871-1.229 42.914-21.034 42.914-45.202v-47.925c0-24.172-19.043-43.98-42.914-45.209v-28.529c0-4.143-3.357-7.5-7.5-7.5s-7.5 3.357-7.5 7.5v28.469h-18.172v-131.756h18.172v68.287c0 4.143 3.357 7.5 7.5 7.5s7.5-3.357 7.5-7.5v-68.287h55.907v371.08zm-33.172 0v-100.867h18.172v100.867zm-70.908 0v-371.08h55.908v131.756h-21.91c-13.232 0-23.998 10.766-23.998 23.998v69.199c0 24.956 20.304 45.26 45.26 45.26h.648v100.867zm-33.172 0v-371.08h18.172v371.08zm-70.908 0v-100.867h.648c24.956 0 45.26-20.304 45.26-45.26v-69.199c0-13.232-10.766-23.998-23.998-23.998h-21.91v-131.756h55.908v371.08zm-33.172 0v-100.867h18.172v100.867zm18.172-371.08v131.756h-18.172v-131.756zm27.544 233.953c4.799-3.973 7.94-9.816 8.253-16.438.147-3.135-.327-6.19-1.373-9.031h2.487c3.18 0 6.218-.622 8.998-1.751v18.219c0 10.854-5.745 20.392-14.353 25.732.113-.756.189-1.525.226-2.305.247-5.238-1.243-10.257-4.238-14.426zm18.364-49.467c0 4.962-4.036 8.998-8.998 8.998h-2.502c2.919-7.893 1.295-16.928-4.569-23.364 5.868-6.438 7.486-15.476 4.569-23.364h2.502c4.962 0 8.998 4.036 8.998 8.998zm-76.726-37.73h43.707c4.374 0 7.933 3.559 7.933 7.933 0 4.373-3.559 7.932-7.933 7.932h-38.621c-4.143 0-7.5 3.357-7.5 7.5s3.357 7.5 7.5 7.5h38.621c4.374 0 7.933 3.559 7.933 7.933 0 4.373-3.559 7.932-7.933 7.932h-38.621c-4.143 0-7.5 3.357-7.5 7.5s3.357 7.5 7.5 7.5h38.621c2.189 0 4.229.873 5.741 2.458 1.511 1.584 2.285 3.668 2.183 5.867-.196 4.157-3.946 7.539-8.359 7.539h-38.186c-4.143 0-7.5 3.357-7.5 7.5s3.357 7.5 7.5 7.5h34.607c2.189 0 4.229.873 5.741 2.458 1.51 1.584 2.285 3.668 2.181 5.868-.195 4.156-3.944 7.538-8.357 7.538h-39.258c-16.69 0-30.269-13.576-30.269-30.263v-47.925c.001-16.691 13.579-30.27 30.269-30.27zm251.624 0c16.69 0 30.269 13.579 30.269 30.27v47.925c0 16.687-13.578 30.263-30.269 30.263h-39.258c-4.413 0-8.162-3.382-8.358-7.539-.104-2.199.672-4.283 2.182-5.867 1.513-1.585 3.552-2.458 5.741-2.458h34.607c4.143 0 7.5-3.357 7.5-7.5s-3.357-7.5-7.5-7.5h-38.186c-4.413 0-8.163-3.382-8.358-7.538-.104-2.2.671-4.284 2.182-5.868 1.513-1.585 3.552-2.458 5.741-2.458h38.621c4.143 0 7.5-3.357 7.5-7.5s-3.357-7.5-7.5-7.5h-38.621c-4.374 0-7.933-3.559-7.933-7.932 0-4.374 3.559-7.933 7.933-7.933h38.621c4.143 0 7.5-3.357 7.5-7.5s-3.357-7.5-7.5-7.5h-38.621c-4.374 0-7.933-3.559-7.933-7.932 0-4.374 3.559-7.933 7.933-7.933zm-60.657 23.364c-3.715 4.077-5.983 9.495-5.983 15.433 0 2.787.5 5.459 1.414 7.932h-2.502c-4.962 0-8.998-4.036-8.998-8.998v-28.732c0-4.962 4.036-8.998 8.998-8.998h2.502c-2.914 7.879-1.305 16.917 4.569 23.363zm-16.069 36.614c2.78 1.129 5.818 1.751 8.998 1.751h2.487c-1.046 2.842-1.52 5.897-1.373 9.032.312 6.62 3.453 12.464 8.251 16.437-2.994 4.17-4.484 9.188-4.237 14.427.037.78.113 1.549.226 2.305-8.608-5.341-14.352-14.878-14.352-25.732zm191.914-221.734h-372.023c-4.143 0-7.5 3.357-7.5 7.5s3.357 7.5 7.5 7.5h2.857v131.817c-23.871 1.229-42.914 21.037-42.914 45.209v47.925c0 24.168 19.043 43.973 42.914 45.202v100.927h-14.328c-4.143 0-7.5 3.357-7.5 7.5s3.357 7.5 7.5 7.5h383.494v29.148h-482v-29.148h63.506c4.143 0 7.5-3.357 7.5-7.5s-3.357-7.5-7.5-7.5h-6.579v-371.08h18.05c4.143 0 7.5-3.357 7.5-7.5s-3.357-7.5-7.5-7.5h-74.977v-29.148h482z"/></g></svg>